# xmcd
#
# Track frame offsets:
#	150
#	9200
#	26600
#	38925
#	49414
#	65172
#	76580
#	88542
#	100772
#	111515
#	126530
#	140952
#
# Disc length: 2047 seconds
#
# Revision: 0
# Processed by: cddbd v1.4PL0 Copyright (c) Steve Scherf et al.
# Submitted via: audiograbber 1.82.02
#
DISCID=a607fd0c
DTITLE=Tennessee Ernie Ford - 36 All Time Greatest Hits [CD3)
DYEAR=1999
DGENRE=Country
TTITLE0=How Great Thou Art
TTITLE1=What A Friend We Have In Jesus
TTITLE2=The Old Rugged Cross
TTITLE3=Blessed Assurance
TTITLE4=Nearer, My God, To Thee
TTITLE5=His Amazing Grace
TTITLE6=Rock Of Ages
TTITLE7=Get On Board, Little Children
TTITLE8=Farther Along
TTITLE9=Peace In The Valley
TTITLE10=Take My Hand, Precious Lord
TTITLE11=In The Garden
EXTD=
EXTT0=
EXTT1=
EXTT2=
EXTT3=
EXTT4=
EXTT5=
EXTT6=
EXTT7=
EXTT8=
EXTT9=
EXTT10=
EXTT11=
PLAYORDER=
